<svg viewBox="0 0 122.09 136.12" xmlns="http://www.w3.org/2000/svg" xmlns:xlink="http://www.w3.org/1999/xlink"><linearGradient id="a" gradientUnits="userSpaceOnUse" x1="0" x2="122.07" y1="68.06" y2="68.06"><stop offset="0" stop-color="#8fc557"/><stop offset=".75" stop-color="#36aec9"/><stop offset="1" stop-color="#2674b5"/></linearGradient><circle cx="104.88" cy="42.23" fill="#2a91d0" r="17.21"/><path d="m115.04 79.51c-4.35-3.16-9.55-3.98-14.27-2.82-4.67 1.15-9.6.68-13.76-1.73l-1.06-.61c-4.44-2.56-7.59-6.77-9.2-11.64-.64-1.93-1.61-3.73-2.86-5.31-2.99-3.78-4.81-8.35-4.81-13.17v-1.64c0-5.52 1.97-10.77 5.23-15.23.61-.84 1.16-1.75 1.63-2.73 3.7-7.69 1.03-17.18-6.12-21.83-8.27-5.39-19.27-2.74-24.23 5.67-.38.65-.72 1.32-1.01 2-2.08 4.9-5.56 9.07-10.16 11.73-4.51 2.6-9.74 3.68-14.9 2.98-.58-.08-1.17-.13-1.77-.15-8.22-.26-15.64 5.52-17.36 13.57-1.1 5.18.21 10.21 3.12 14.04 3.14 4.13 5.03 9.08 5.03 14.27v1.37c0 5.34-1.85 10.48-5.07 14.75-.89 1.18-1.64 2.49-2.24 3.95-2.87 7.04-.64 15.32 5.36 19.97 3.73 2.89 8.14 3.99 12.35 3.55 5.14-.54 10.31.62 14.79 3.2.09.05.18.1.27.16 4.83 2.79 8.46 7.15 10.77 12.22 1.6 3.52 4.4 6.53 8.23 8.37 7.65 3.67 17.05 1.06 21.74-6.01 5.49-8.29 2.85-19.36-5.6-24.34-4.38-2.58-9.43-3-13.93-1.57-2.49.79-5.19.57-7.46-.73l-.08-.04c-6.09-3.5-6.1-12.29 0-15.8l.88-.51c2.2-1.27 4.81-1.49 7.25-.81.61.17 1.23.31 1.87.41 1.04.17 2.08.24 3.1.22 5.66-.12 11.27 1.07 16.18 3.9l2.12 1.22c4.61 2.66 8.19 6.68 10.76 11.34 1.43 2.6 3.56 4.87 6.31 6.49 8.46 4.98 19.44 1.91 24.02-6.92 3.87-7.46 1.67-16.85-5.12-21.79zm-69.71-14.48c-5.77 7.02-13.37 8.23-16.97 2.71s-1.84-15.69 3.93-22.71 13.37-8.23 16.97-2.71 1.84 15.69-3.93 22.71z" fill="url(#a)"/></svg>